# Blender v2.79 (sub 0) OBJ File: 'Person.blend'
# www.blender.org
mtllib Person.mtl
o Icosphere
v 0.085806 2.896821 0.442311
v 1.226731 3.768400 1.271232
v -0.349979 3.768399 1.783545
v -1.324451 3.768406 0.442311
v -0.349979 3.768399 -0.898923
v 1.226731 3.768400 -0.386609
v 0.521592 5.178679 1.783545
v -1.055118 5.178678 1.271232
v -1.055118 5.178678 -0.386609
v 0.521592 5.178679 -0.898923
v 1.496064 5.178672 0.442311
v 0.085806 6.050257 0.442311
v -0.170340 3.132297 1.230663
v 0.756420 3.132297 0.929535
v 0.500276 3.644599 1.717894
v 1.427038 3.644602 0.442311
v 0.756420 3.132297 -0.044913
v -0.743121 3.132301 0.442311
v -0.999274 3.644601 1.230665
v -0.170340 3.132297 -0.346040
v -0.999274 3.644601 -0.346043
v 0.500276 3.644599 -0.833272
v 1.585356 4.473539 0.929537
v 1.585356 4.473539 -0.044915
v 0.085806 4.473539 2.019029
v 1.012578 4.473539 1.717902
v -1.413743 4.473539 0.929537
v -0.840966 4.473539 1.717902
v -0.840966 4.473539 -0.833280
v -1.413743 4.473539 -0.044915
v 1.012578 4.473539 -0.833280
v 0.085806 4.473539 -1.134406
v 1.170887 5.302476 1.230665
v -0.328663 5.302479 1.717894
v -1.255425 5.302476 0.442311
v -0.328663 5.302479 -0.833272
v 1.170887 5.302476 -0.346043
v 0.341953 5.814781 1.230663
v 0.914734 5.814776 0.442311
v -0.584807 5.814780 0.929535
v -0.584807 5.814780 -0.044913
v 0.341953 5.814781 -0.346040
vn 0.0000 -1.0000 0.0000
vn 0.4253 -0.8506 0.3090
vn -0.1625 -0.8506 0.5000
vn 0.7236 -0.4472 0.5257
vn 0.8506 -0.5257 0.0000
vn -0.5257 -0.8506 0.0000
vn -0.1625 -0.8506 -0.5000
vn 0.4253 -0.8506 -0.3090
vn 0.9510 0.0000 0.3090
vn -0.2764 -0.4472 0.8506
vn 0.2629 -0.5257 0.8090
vn 0.0000 0.0000 1.0000
vn -0.8944 -0.4472 0.0000
vn -0.6882 -0.5257 0.5000
vn -0.9510 0.0000 0.3090
vn -0.2764 -0.4472 -0.8506
vn -0.6882 -0.5257 -0.5000
vn -0.5878 0.0000 -0.8090
vn 0.7236 -0.4472 -0.5257
vn 0.2629 -0.5257 -0.8090
vn 0.5878 0.0000 -0.8090
vn 0.5878 0.0000 0.8090
vn -0.5878 0.0000 0.8090
vn -0.9510 0.0000 -0.3090
vn 0.0000 0.0000 -1.0000
vn 0.9510 0.0000 -0.3090
vn 0.2764 0.4472 0.8506
vn 0.6882 0.5257 0.5000
vn 0.1625 0.8506 0.5000
vn -0.7236 0.4472 0.5257
vn -0.2629 0.5257 0.8090
vn -0.4253 0.8506 0.3090
vn -0.7236 0.4472 -0.5257
vn -0.8506 0.5257 0.0000
vn -0.4253 0.8506 -0.3090
vn 0.2764 0.4472 -0.8506
vn -0.2629 0.5257 -0.8090
vn 0.1625 0.8506 -0.5000
vn 0.8944 0.4472 0.0000
vn 0.6882 0.5257 -0.5000
vn 0.5257 0.8506 0.0000
vn 0.0000 1.0000 0.0000
usemtl None
s 1
f 1//1 14//2 13//3
f 2//4 14//2 16//5
f 1//1 13//3 18//6
f 1//1 18//6 20//7
f 1//1 20//7 17//8
f 2//4 16//5 23//9
f 3//10 15//11 25//12
f 4//13 19//14 27//15
f 5//16 21//17 29//18
f 6//19 22//20 31//21
f 2//4 23//9 26//22
f 3//10 25//12 28//23
f 4//13 27//15 30//24
f 5//16 29//18 32//25
f 6//19 31//21 24//26
f 7//27 33//28 38//29
f 8//30 34//31 40//32
f 9//33 35//34 41//35
f 10//36 36//37 42//38
f 11//39 37//40 39//41
f 39//41 42//38 12//42
f 39//41 37//40 42//38
f 37//40 10//36 42//38
f 42//38 41//35 12//42
f 42//38 36//37 41//35
f 36//37 9//33 41//35
f 41//35 40//32 12//42
f 41//35 35//34 40//32
f 35//34 8//30 40//32
f 40//32 38//29 12//42
f 40//32 34//31 38//29
f 34//31 7//27 38//29
f 38//29 39//41 12//42
f 38//29 33//28 39//41
f 33//28 11//39 39//41
f 24//26 37//40 11//39
f 24//26 31//21 37//40
f 31//21 10//36 37//40
f 32//25 36//37 10//36
f 32//25 29//18 36//37
f 29//18 9//33 36//37
f 30//24 35//34 9//33
f 30//24 27//15 35//34
f 27//15 8//30 35//34
f 28//23 34//31 8//30
f 28//23 25//12 34//31
f 25//12 7//27 34//31
f 26//22 33//28 7//27
f 26//22 23//9 33//28
f 23//9 11//39 33//28
f 31//21 32//25 10//36
f 31//21 22//20 32//25
f 22//20 5//16 32//25
f 29//18 30//24 9//33
f 29//18 21//17 30//24
f 21//17 4//13 30//24
f 27//15 28//23 8//30
f 27//15 19//14 28//23
f 19//14 3//10 28//23
f 25//12 26//22 7//27
f 25//12 15//11 26//22
f 15//11 2//4 26//22
f 23//9 24//26 11//39
f 23//9 16//5 24//26
f 16//5 6//19 24//26
f 17//8 22//20 6//19
f 17//8 20//7 22//20
f 20//7 5//16 22//20
f 20//7 21//17 5//16
f 20//7 18//6 21//17
f 18//6 4//13 21//17
f 18//6 19//14 4//13
f 18//6 13//3 19//14
f 13//3 3//10 19//14
f 16//5 17//8 6//19
f 16//5 14//2 17//8
f 14//2 1//1 17//8
f 13//3 15//11 3//10
f 13//3 14//2 15//11
f 14//2 2//4 15//11
o Cube
v -0.003435 -0.197389 -0.415677
v -0.003435 -0.197389 1.000000
v -1.000027 -0.197389 1.000000
v -1.000027 -0.197389 -0.415677
v -0.003434 0.522065 -0.415677
v -0.003435 0.522065 1.000001
v -1.000027 0.522065 1.000000
v -1.000027 0.522065 -0.415677
v -0.003434 2.516603 -0.415677
v -0.003435 2.516603 1.000001
v -1.000027 2.516603 -0.415677
v -1.000027 2.516603 1.000000
v -0.784675 -2.665473 -0.396891
v -0.784675 -2.665473 1.018786
v -1.781267 -2.665473 -0.396891
v -1.781267 -2.665473 1.018786
v -1.000027 1.569698 1.000000
v -1.000027 1.569698 -0.415677
v -0.003434 1.569698 -0.415677
v -0.003435 1.569698 1.000001
v -1.352114 2.516603 0.769778
v -1.352113 2.516603 -0.185456
v -2.041798 1.569698 0.820111
v -2.041797 1.569698 -0.235789
v -1.591092 -0.134217 0.765547
v -1.591091 -0.134217 -0.237690
v -2.329355 -0.134217 0.765546
v -2.329355 -0.134217 -0.237691
v -0.676571 -0.197389 -0.415677
v -0.676572 -0.197389 1.000000
v -0.676571 0.522065 -0.415677
v -0.676572 0.522065 1.000000
v -0.834317 2.516603 -0.415677
v -0.834318 2.516603 1.000000
v -1.457812 -2.665473 -0.396891
v -1.457812 -2.665473 1.018786
v -0.676572 1.569698 1.000000
v -0.676571 1.569698 -0.415677
v -0.003434 3.082552 -0.415677
v -0.003435 3.082552 1.000001
v -0.676571 3.082552 -0.415677
v -0.676572 3.082552 1.000000
v -0.003434 3.684031 -0.415677
v -0.003435 3.684031 1.000001
v -0.676571 3.684031 -0.415677
v -0.676572 3.684031 1.000000
v -0.784675 -5.137009 -0.396891
v -0.784675 -5.137009 1.018786
v -1.457812 -5.137009 -0.396891
v -1.781267 -5.137009 -0.396891
v -1.457812 -5.137009 1.018786
v -1.781267 -5.137009 1.018786
v -1.619866 -1.844602 0.726445
v -1.619866 -1.844602 -0.198589
v -2.300581 -1.844602 0.726445
v -2.300581 -1.844602 -0.198589
v 1.000027 -0.197389 1.000000
v 1.000027 -0.197389 -0.415677
v 1.000027 0.522065 1.000000
v 1.000027 0.522065 -0.415677
v 1.000027 2.516603 -0.415677
v 1.000027 2.516603 1.000000
v 0.784675 -2.665473 -0.396891
v 0.784675 -2.665473 1.018786
v 1.781267 -2.665473 -0.396891
v 1.781267 -2.665473 1.018786
v 1.000027 1.569698 1.000000
v 1.000027 1.569698 -0.415677
v 1.352114 2.516603 0.769778
v 1.352113 2.516603 -0.185456
v 2.041798 1.569698 0.820111
v 2.041797 1.569698 -0.235789
v 1.591092 -0.134217 0.765547
v 1.591091 -0.134217 -0.237690
v 2.329355 -0.134217 0.765546
v 2.329355 -0.134217 -0.237691
v 0.676571 -0.197389 -0.415677
v 0.676572 -0.197389 1.000000
v 0.676571 0.522065 -0.415677
v 0.676572 0.522065 1.000000
v 0.834317 2.516603 -0.415677
v 0.834318 2.516603 1.000000
v 1.457812 -2.665473 -0.396891
v 1.457812 -2.665473 1.018786
v 0.676572 1.569698 1.000000
v 0.676571 1.569698 -0.415677
v 0.676571 3.082552 -0.415677
v 0.676572 3.082552 1.000000
v 0.676571 3.684031 -0.415677
v 0.676572 3.684031 1.000000
v 0.784675 -5.137009 -0.396891
v 0.784675 -5.137009 1.018786
v 1.457812 -5.137009 -0.396891
v 1.781267 -5.137009 -0.396891
v 1.457812 -5.137009 1.018786
v 1.781267 -5.137009 1.018786
v 1.619866 -1.844602 0.726445
v 1.619866 -1.844602 -0.198589
v 2.300581 -1.844602 0.726445
v 2.300581 -1.844602 -0.198589
vn 0.2637 -0.1622 -0.9508
vn 0.2639 -0.1573 0.9516
vn 0.6607 -0.0987 0.7441
vn 0.6619 -0.1056 -0.7421
vn -0.1060 0.6656 -0.7387
vn -0.1256 -0.0531 -0.9906
vn -0.7420 0.2848 -0.6069
vn -0.4352 0.7779 -0.4533
vn 0.4472 0.0000 -0.8944
vn 0.4472 0.0000 0.8944
vn 0.0000 0.0038 1.0000
vn 0.0000 0.0000 1.0000
vn -0.7071 0.0000 0.7071
vn -0.6619 0.1056 0.7421
vn -0.7071 0.0000 -0.7071
vn -0.6607 0.0987 -0.7441
vn 0.0000 0.0000 -1.0000
vn 0.0000 -0.0038 -1.0000
vn -0.2969 0.3909 -0.8712
vn -0.1060 0.6656 0.7387
vn -0.2969 0.3909 0.8712
vn 0.5773 -0.5773 0.5773
vn 0.5773 -0.5773 -0.5773
vn -0.7307 0.1108 -0.6736
vn -0.7289 0.1146 0.6749
vn -0.1305 -0.0582 0.9897
vn -0.7413 0.2728 0.6131
vn -0.4352 0.7779 0.4533
vn 0.6414 -0.1437 -0.7536
vn -0.7386 0.0374 -0.6731
vn 0.6441 -0.1586 0.7483
vn 0.5732 -0.5877 0.5709
vn 0.5732 -0.5877 -0.5709
vn -0.7423 0.0280 0.6695
vn -0.5773 -0.5773 0.5773
vn 0.0000 -0.7071 0.7071
vn -0.6676 0.0913 0.7389
vn -0.6676 0.0913 -0.7389
vn -0.5773 0.5773 0.5773
vn -0.5773 0.5773 -0.5773
vn 0.3333 0.6666 -0.6666
vn 0.3333 0.6666 0.6666
vn 0.0000 -0.7071 -0.7071
vn -0.5773 -0.5773 -0.5773
vn -0.5732 -0.5877 0.5709
vn -0.5732 -0.5877 -0.5709
vn -0.6614 -0.1064 -0.7424
vn -0.6602 -0.0995 0.7444
vn 0.1060 0.6656 -0.7387
vn 0.4352 0.7779 -0.4533
vn 0.7420 0.2848 -0.6069
vn 0.1256 -0.0531 -0.9906
vn 0.6619 0.1056 0.7421
vn 0.7071 0.0000 0.7071
vn 0.6607 0.0987 -0.7441
vn 0.7071 0.0000 -0.7071
vn 0.2969 0.3909 -0.8712
vn 0.2969 0.3909 0.8712
vn 0.1060 0.6656 0.7387
vn 0.7289 0.1146 0.6749
vn 0.7307 0.1108 -0.6736
vn 0.1305 -0.0582 0.9897
vn 0.4352 0.7779 0.4533
vn 0.7413 0.2728 0.6131
vn 0.7386 0.0374 -0.6731
vn -0.6414 -0.1437 -0.7536
vn -0.6441 -0.1586 0.7483
vn 0.7423 0.0280 0.6695
vn 0.6676 0.0913 -0.7389
vn 0.6676 0.0913 0.7389
vn 0.5773 0.5773 -0.5773
vn 0.5773 0.5773 0.5773
usemtl Material
s 1
f 43//43 44//44 56//45 55//46
f 53//47 60//48 66//49 64//50
f 43//43 47//51 48//52 44//44
f 72//53 74//54 49//55 45//56
f 45//56 49//55 50//57 46//58
f 73//59 71//60 46//58 50//57
f 75//61 53//47 54//62 76//63
f 80//59 60//48 53//47 75//61
f 79//54 62//52 52//52 76//63
f 62//52 61//51 51//51 52//52
f 55//46 56//45 90//64 89//65
f 45//56 46//58 57//66 58//67
f 72//53 45//56 58//67 78//53
f 71//60 43//43 55//46 77//60
f 48//52 47//51 61//51 62//52
f 74//54 48//52 62//52 79//54
f 73//59 50//57 60//48 80//59
f 50//57 49//55 59//68 60//48
f 66//49 65//69 63//70 64//50
f 59//68 54//62 63//70 65//69
f 54//62 53//47 64//50 63//70
f 66//49 60//48 68//71 70//72
f 68//71 67//73 95//74 96//75
f 59//68 65//69 69//76 67//73
f 65//69 66//49 70//72 69//76
f 60//48 59//68 67//73 68//71
f 47//51 73//59 80//59 61//51
f 49//55 74//54 79//54 59//68
f 46//58 71//60 77//60 57//66
f 44//44 72//53 78//53 56//45
f 78//53 58//67 94//77 93//78
f 59//68 79//54 76//63 54//62
f 61//51 80//59 75//61 51//51
f 75//61 76//63 84//79 83//80
f 47//51 43//43 71//60 73//59
f 44//44 48//52 74//54 72//53
f 83//80 84//79 88//81 87//82
f 52//52 51//51 81//51 82//52
f 51//51 75//61 83//80 81//51
f 76//63 52//52 82//52 84//79
f 85//83 87//82 88//81 86//84
f 81//51 83//80 87//82 85//83
f 84//79 82//52 86//84 88//81
f 82//52 81//51 85//83 86//84
f 91//85 93//78 94//77 92//86
f 89//65 90//64 93//78 91//85
f 77//60 55//46 89//65 91//85
f 58//67 57//66 92//86 94//77
f 57//66 77//60 91//85 92//86
f 56//45 78//53 93//78 90//64
f 96//75 95//74 97//87 98//88
f 67//73 69//76 97//87 95//74
f 69//76 70//72 98//88 97//87
f 70//72 68//71 96//75 98//88
f 43//43 105//89 106//90 44//44
f 103//91 112//92 114//93 110//94
f 120//53 99//95 101//96 122//54
f 99//95 100//97 102//98 101//96
f 121//59 102//98 100//97 119//60
f 123//99 124//100 104//101 103//91
f 128//59 123//99 103//91 110//94
f 127//54 124//100 52//52 62//52
f 105//89 133//86 134//77 106//90
f 99//95 108//102 107//103 100//97
f 120//53 126//53 108//102 99//95
f 119//60 125//60 105//89 43//43
f 122//54 127//54 62//52 48//52
f 121//59 128//59 110//94 102//98
f 102//98 110//94 109//104 101//96
f 114//93 112//92 111//105 113//106
f 109//104 113//106 111//105 104//101
f 104//101 111//105 112//92 103//91
f 114//93 118//107 116//108 110//94
f 116//108 140//88 139//87 115//109
f 109//104 115//109 117//110 113//106
f 113//106 117//110 118//107 114//93
f 110//94 116//108 115//109 109//104
f 47//51 61//51 128//59 121//59
f 101//96 109//104 127//54 122//54
f 100//97 107//103 125//60 119//60
f 44//44 106//90 126//53 120//53
f 126//53 137//78 138//64 108//102
f 109//104 104//101 124//100 127//54
f 61//51 51//51 123//99 128//59
f 123//99 129//111 130//112 124//100
f 47//51 121//59 119//60 43//43
f 44//44 120//53 122//54 48//52
f 129//111 131//113 132//114 130//112
f 51//51 81//51 129//111 123//99
f 124//100 130//112 82//52 52//52
f 85//83 86//84 132//114 131//113
f 81//51 85//83 131//113 129//111
f 130//112 132//114 86//84 82//52
f 135//85 136//65 138//64 137//78
f 133//86 135//85 137//78 134//77
f 125//60 135//85 133//86 105//89
f 108//102 138//64 136//65 107//103
f 107//103 136//65 135//85 125//60
f 106//90 134//77 137//78 126//53
f 140//88 142//75 141//74 139//87
f 115//109 139//87 141//74 117//110
f 117//110 141//74 142//75 118//107
f 118//107 142//75 140//88 116//108
